<svg width="1183" height="1019" viewBox="0 0 1183 1019" fill="none" xmlns="http://www.w3.org/2000/svg">
<g filter="url(#filter0_d_242_2)">
<path fill-rule="evenodd" clip-rule="evenodd" d="M117.838 487.399C81.5982 487.399 63.4501 531.215 89.0763 556.839L223.36 691.113C242.113 709.865 267.548 720.399 294.068 720.399H364.76C391.281 720.399 416.715 730.934 435.468 749.686L596.508 910.713C615.262 929.465 640.696 940 667.216 940H1056.07C1128.6 940 1164.93 852.302 1113.64 801.015L1027.24 714.63C1007.83 695.22 1021.58 662.03 1049.03 662.03C1076.48 662.03 1090.23 628.841 1070.82 609.431L875.482 414.111C856.728 395.359 831.294 384.824 804.774 384.824H570.332C543.811 384.824 518.377 374.289 499.624 355.537L464.37 320.287C445.617 301.535 420.183 291 393.662 291H158.511C107.263 291 81.5982 352.963 117.838 389.199L146.599 417.959C172.226 443.583 154.077 487.399 117.838 487.399Z" fill="#2D314D"/>
</g>
<path fill-rule="evenodd" clip-rule="evenodd" d="M255.838 180.399C219.598 180.399 201.45 224.215 227.076 249.839L361.36 384.113C380.113 402.865 405.548 413.399 432.068 413.399H502.76C529.281 413.399 554.715 423.934 573.468 442.686L734.508 603.713C753.262 622.465 778.696 633 805.216 633H1194.07C1266.6 633 1302.93 545.302 1251.64 494.015L1165.24 407.63C1145.83 388.22 1159.58 355.03 1187.03 355.03C1214.48 355.03 1228.23 321.841 1208.82 302.431L1013.48 107.111C994.728 88.3585 969.294 77.8239 942.774 77.8239H708.332C681.811 77.8239 656.377 67.2892 637.624 48.5372L602.37 13.2866C583.617 -5.46537 558.183 -16 531.662 -16H296.511C245.263 -16 219.598 45.9626 255.838 82.1995L284.599 110.959C310.226 136.583 292.077 180.399 255.838 180.399Z" fill="url(#paint0_linear_242_2)"/>
<defs>
<filter id="filter0_d_242_2" x="0.079834" y="216" width="1214.57" height="803" filterUnits="userSpaceOnUse" color-interpolation-filters="sRGB">
<feFlood flood-opacity="0" result="BackgroundImageFix"/>
<feColorMatrix in="SourceAlpha" type="matrix" values="0 0 0 0 0 0 0 0 0 0 0 0 0 0 0 0 0 0 127 0" result="hardAlpha"/>
<feOffset dy="2"/>
<feGaussianBlur stdDeviation="38.5"/>
<feColorMatrix type="matrix" values="0 0 0 0 0 0 0 0 0 0 0 0 0 0 0 0 0 0 0.0240111 0"/>
<feBlend mode="normal" in2="BackgroundImageFix" result="effect1_dropShadow_242_2"/>
<feBlend mode="normal" in="SourceGraphic" in2="effect1_dropShadow_242_2" result="shape"/>
</filter>
<linearGradient id="paint0_linear_242_2" x1="-456.282" y1="307.138" x2="76.4649" y2="1319.28" gradientUnits="userSpaceOnUse">
<stop stop-color="#33D35E"/>
<stop offset="1" stop-color="#2AB6D9"/>
</linearGradient>
</defs>
</svg>
